<svg xmlns="http://www.w3.org/2000/svg" viewBox="0 0 200 200">
  <rect width="200" height="200" rx="36" fill="#faf5f0"/>
  <g fill="none" stroke="#b26d3f" stroke-width="4">
    <circle cx="100" cy="100" r="80" stroke-opacity="0.4"/>
    <circle cx="100" cy="100" r="34" stroke-opacity="0.7"/>
    <circle cx="100" cy="100" r="12" stroke-opacity="1"/>
    <g>
      <path d="M100 30 C118 58, 118 82, 100 100 C82 82, 82 58, 100 30 Z" stroke-opacity="0.8"/>
      <path d="M100 30 C118 58, 118 82, 100 100 C82 82, 82 58, 100 30 Z" stroke-opacity="0.8" transform="rotate(60 100 100)"/>
      <path d="M100 30 C118 58, 118 82, 100 100 C82 82, 82 58, 100 30 Z" stroke-opacity="0.8" transform="rotate(120 100 100)"/>
      <path d="M100 30 C118 58, 118 82, 100 100 C82 82, 82 58, 100 30 Z" stroke-opacity="0.8" transform="rotate(180 100 100)"/>
      <path d="M100 30 C118 58, 118 82, 100 100 C82 82, 82 58, 100 30 Z" stroke-opacity="0.8" transform="rotate(240 100 100)"/>
      <path d="M100 30 C118 58, 118 82, 100 100 C82 82, 82 58, 100 30 Z" stroke-opacity="0.8" transform="rotate(300 100 100)"/>
    </g>
  </g>
</svg>
